<?xml version="1.0" encoding="UTF-8" standalone="no"?>
<svg
   xmlns:dc="http://purl.org/dc/elements/1.1/"
   xmlns:cc="http://creativecommons.org/ns#"
   xmlns:rdf="http://www.w3.org/1999/02/22-rdf-syntax-ns#"
   xmlns:svg="http://www.w3.org/2000/svg"
   xmlns="http://www.w3.org/2000/svg"
   xmlns:sodipodi="http://sodipodi.sourceforge.net/DTD/sodipodi-0.dtd"
   xmlns:inkscape="http://www.inkscape.org/namespaces/inkscape"
   viewBox="0 -0.060000000000000005 35 40.3"
   width="2168"
   height="2500"
   version="1.1"
   id="svg9"
   sodipodi:docname="tinde_logo_white.svg"
   inkscape:version="0.92.3 (2405546, 2018-03-11)">
  <metadata
     id="metadata15">
    <rdf:RDF>
      <cc:Work
         rdf:about="">
        <dc:format>image/svg+xml</dc:format>
        <dc:type
           rdf:resource="http://purl.org/dc/dcmitype/StillImage" />
      </cc:Work>
    </rdf:RDF>
  </metadata>
  <defs
     id="defs13" />
  <sodipodi:namedview
     pagecolor="#ffffff"
     bordercolor="#666666"
     borderopacity="1"
     objecttolerance="10"
     gridtolerance="10"
     guidetolerance="10"
     inkscape:pageopacity="0"
     inkscape:pageshadow="2"
     inkscape:window-width="1920"
     inkscape:window-height="1030"
     id="namedview11"
     showgrid="false"
     inkscape:zoom="0.0944"
     inkscape:cx="1105.1864"
     inkscape:cy="1250"
     inkscape:window-x="0"
     inkscape:window-y="22"
     inkscape:window-maximized="1"
     inkscape:current-layer="svg9" />
  <radialGradient
     id="a"
     cx=".5"
     cy="1"
     r="1"
     spreadMethod="pad">
    <stop
       offset="0"
       stop-color="#ff7854"
       id="stop2" />
    <stop
       offset="1"
       stop-color="#fd267d"
       id="stop4" />
  </radialGradient>
  <path
     d="M10.5 16.25c-.06 0-.1 0-.14-.04-1.36-1.8-1.7-4.9-1.78-6.08-.02-.23-.28-.35-.48-.24C3.9 12.24 0 17.82 0 23.2c0 9.27 6.43 17.04 17.5 17.04 10.37 0 17.5-8 17.5-17.03C35 11.4 26.57 3.58 19.06.04c-.2-.1-.42.07-.4.28.98 6.37-.36 13.28-8.17 15.95z"
     fill="url(#a)"
     id="path7"
     style="fill:#ffffff" />
</svg>
